<svg width="224" height="36" viewBox="0 0 224 36" fill="none" xmlns="http://www.w3.org/2000/svg">
<path d="M13.6 35.72C11.168 35.72 8.928 35.032 6.88 33.656C4.832 32.28 3.2 30.28 1.984 27.656C0.768 25 0.16 21.848 0.16 18.2C0.16 14.52 0.784 11.368 2.032 8.744C3.312 6.088 5.088 4.088 7.36 2.744C9.664 1.368 12.32 0.679998 15.328 0.679998C17.152 0.679998 18.992 1.208 20.848 2.264C21.552 2.648 22.256 3.16 22.96 3.8C23.504 2.968 24.064 2.312 24.64 1.832C25.216 1.416 25.536 1.192 25.6 1.16H26.8V10.28H24.88C24.464 8.744 23.84 7.352 23.008 6.104C22.24 4.888 21.28 3.88 20.128 3.08C19.008 2.28 17.712 1.88 16.24 1.88C14.032 1.88 12.192 3.16 10.72 5.72C9.28 8.28 8.56 12.44 8.56 18.2C8.56 23.96 9.2 28.04 10.48 30.44C11.792 32.84 13.472 34.04 15.52 34.04C16.704 34.04 17.776 33.4 18.736 32.12C19.088 31.64 19.456 31 19.84 30.2V19.16L16.96 18.44V17.72H30.64V18.44L27.76 19.16V35.24H27.04C24.704 35.24 22.928 34.6 21.712 33.32C21.168 32.744 20.784 32.104 20.56 31.4C20.112 32.2 19.584 32.92 18.976 33.56C17.536 35 15.744 35.72 13.6 35.72ZM34.0094 34.28L36.8894 33.56V2.84L34.0094 2.12V1.4H59.6894V10.04H58.2494C57.6414 9.56 57.1134 8.952 56.6654 8.216C55.6414 6.488 55.1294 4.616 55.1294 2.6H44.8094V17.72H50.3294C50.5534 16.504 50.9694 15.368 51.5774 14.312C51.8334 13.832 52.1374 13.368 52.4894 12.92H53.9294V23.72H52.4894C52.1374 23.272 51.8334 22.808 51.5774 22.328C50.9694 21.272 50.5534 20.136 50.3294 18.92H44.8094V33.8H56.0894C56.0894 31.784 56.6014 29.912 57.6254 28.184C58.0734 27.448 58.6014 26.84 59.2094 26.36H60.6494V35H34.0094V34.28ZM70.9469 34.28L73.8269 33.56V2.6H68.3069C68.3069 4.552 67.7789 6.424 66.7229 8.216C66.2749 8.952 65.7629 9.56 65.1869 10.04H63.7469V1.4H91.8269V10.04H90.3869C89.7789 9.56 89.2509 8.952 88.8029 8.216C87.7789 6.488 87.2669 4.616 87.2669 2.6H81.7469V33.56L84.6269 34.28V35H70.9469V34.28ZM89.1962 34.28L93.0363 32.84L106.236 0.919998H107.676L121.356 33.56L123.756 34.28V35H117.996C116.332 35 114.972 34.632 113.916 33.896C112.86 33.128 112.076 32.136 111.564 30.92L109.116 25.16H97.6443L94.4763 32.84L98.0763 34.28V35H89.1962V34.28ZM98.1243 23.96H108.636L103.356 11.336L98.1243 23.96ZM121.321 2.6L118.681 2.12V1.4H124.441C126.137 1.4 127.529 1.784 128.617 2.552C129.705 3.32 130.473 4.296 130.921 5.48L138.169 23.96L142.393 11.576L138.841 2.6L136.201 2.12V1.4H141.961C143.657 1.4 145.033 1.784 146.089 2.552C147.145 3.288 147.929 4.264 148.441 5.48L155.689 23.96L162.601 3.56L159.001 2.12V1.4H167.881V2.12L164.041 3.56L153.241 35.48H151.801L143.161 13.544L135.721 35.48H134.281L121.321 2.6ZM161.196 34.28L165.036 32.84L178.236 0.919998H179.676L193.356 33.56L195.756 34.28V35H189.996C188.332 35 186.972 34.632 185.916 33.896C184.86 33.128 184.076 32.136 183.564 30.92L181.116 25.16H169.644L166.476 32.84L170.076 34.28V35H161.196V34.28ZM170.124 23.96H180.636L175.356 11.336L170.124 23.96ZM200.766 34.28L203.646 33.56V22.52L193.806 2.84L191.406 2.12V1.4H197.406C199.07 1.4 200.398 1.752 201.39 2.456C202.414 3.16 203.246 4.168 203.886 5.48L210.99 19.64L218.286 3.56L214.686 2.12V1.4H223.806V2.12L219.966 3.56L211.566 22.04V33.56L214.446 34.28V35H200.766V34.28Z" fill="#F99D32"/>
</svg>
